# xmcd
#
# Track frame offsets: 
#        150
#        17821
#        38458
#        58306
#        73737
#        92193
#        109510
#        133988
#        153811
#        170343
#        190142
#        209825
#        229166
#
# Disc length: 3259 seconds
#
# Revision: 16
# Processed by: cddbd v1.5.2PL0 Copyright (c) Steve Scherf et al.
# Submitted via: ExactAudioCopyFreeDBPlugin 1.0
#
DISCID=b60cb90d
DTITLE=The Jeff Healey Band - Get Me Some
DYEAR=2000
DGENRE=Blues Rock
TTITLE0=Which One
TTITLE1=Hey Hey
TTITLE2=Love Is the Answer
TTITLE3=My Life Story
TTITLE4=I Tried
TTITLE5=The Damage Is Done
TTITLE6=Feel Better
TTITLE7=Holding on
TTITLE8=I Should Have Told You
TTITLE9=Macon Georgia Blue
TTITLE10=House Is Burning Down
TTITLE11=Runaway Heart
TTITLE12=Rachel's Song
EXTD=Year: 2000\n\n\n                                                 
EXTD=           The Band :\n                                
EXTD=                            *************\n\n          
EXTD=                      Jeff Healey  -  Electric and Acoust
EXTD=ic Guitars/Vocal\n\n                                             
EXTD=Joe Rockman  -  Bass Guitars\n\n                         
EXTD=                        Tom Stephen  -  Drums\n\n\n\n  
EXTD=                                                  www.j
EXTD=effhealey.com\n\n\n                                              
EXTD=   www.jeffhealeyband.com
EXTT0=
EXTT1=
EXTT2=
EXTT3=
EXTT4=
EXTT5=
EXTT6=
EXTT7=
EXTT8=
EXTT9=
EXTT10=
EXTT11=
EXTT12=
PLAYORDER=
